<svg xmlns="http://www.w3.org/2000/svg" width="21" height="21" viewBox="0 0 21 21" fill="none"><path d="M3.96973 17.2754V2.83203C3.96973 1.75781 3.04688 1.2207 1.20117 1.2207C1.06445 1.2207 0.996094 1.03516 0.996094 0.664062C0.996094 0.292969 1.06445 0.107422 1.20117 0.107422C2.56836 0.166016 3.74023 0.195312 4.7168 0.195312C5.70312 0.195312 6.72363 0.180664 7.77832 0.151367C8.84277 0.12207 9.68262 0.107422 10.2979 0.107422C13.335 0.107422 15.874 0.922852 17.915 2.55371C19.9561 4.18457 20.9766 6.44531 20.9766 9.33594C20.9766 12.4805 20.0781 15.0635 18.2812 17.085C16.4941 19.0967 14.0674 20.1025 11.001 20.1025C10.5322 20.1025 9.58008 20.083 8.14453 20.0439C6.71875 20.0146 5.52734 20 4.57031 20C3.61328 20 2.53418 20.0342 1.33301 20.1025C1.20605 20.1025 1.14258 19.9219 1.14258 19.5605C1.14258 19.1895 1.20605 18.999 1.33301 18.9893C3.09082 18.9893 3.96973 18.418 3.96973 17.2754ZM6.31348 15.6348C6.31348 17.0898 6.60645 18.0518 7.19238 18.5205C7.77832 18.9893 8.71094 19.2236 9.99023 19.2236C12.4902 19.2236 14.4775 18.3398 15.9521 16.5723C17.4365 14.8047 18.1787 12.4512 18.1787 9.51172C18.1787 7.05078 17.3145 5.01953 15.5859 3.41797C13.8574 1.80664 11.6943 1.00098 9.09668 1.00098C8.16895 1.00098 7.55371 1.04492 7.25098 1.13281C6.95801 1.21094 6.72852 1.38672 6.5625 1.66016C6.39648 1.92383 6.31348 2.27051 6.31348 2.7002V15.6348Z" fill="black"></path></svg>